<svg width="172" height="32" viewBox="0 0 172 32" fill="none" xmlns="http://www.w3.org/2000/svg">
<g clip-path="url(#clip0)">
<path fill-rule="evenodd" clip-rule="evenodd" d="M164.814 25.1395C158.213 31.7395 148.826 33.055 143.844 28.0744C138.863 23.0938 140.176 13.7018 146.779 7.10069C153.381 0.496115 162.773 -0.815885 167.749 4.16469C172.733 9.14411 171.416 18.5373 164.814 25.1395Z" fill="#62B5E5"/>
<path fill-rule="evenodd" clip-rule="evenodd" d="M149.335 9.4241H164.21C164.947 9.4241 165.543 10.0195 165.543 10.7612C165.543 11.495 164.947 12.0904 164.21 12.0904H149.335C148.597 12.0904 148.002 11.495 148.002 10.7612C148.002 10.0195 148.597 9.4241 149.335 9.4241ZM162.161 27.4127H148.866C148.287 27.4127 147.777 27.0424 147.597 26.4904C147.421 25.9418 147.612 25.3395 148.078 24.9978L152.159 22.0264C153.01 21.407 154.277 21.9852 154.277 23.103C154.277 23.5155 154.089 23.9212 153.732 24.183C153.732 24.183 153.198 24.5715 152.959 24.7441H160.343C156.438 21.7475 148.523 15.6698 148.523 15.6698C148.228 15.439 148.002 15.095 148.002 14.5624C148.002 13.8767 148.623 13.2778 149.276 13.2778H164.235C164.951 13.2778 165.543 13.8881 165.543 14.6115C165.543 15.0892 165.295 15.4355 165.053 15.6378L161.135 18.8984C160.57 19.3704 159.73 19.2927 159.255 18.7235C159.047 18.479 158.947 18.1738 158.947 17.8755C158.947 17.4904 159.113 17.1121 159.428 16.8481C159.428 16.8481 160.079 16.3052 160.513 15.9475H153.262C156.799 18.6595 163.757 23.9612 165.019 24.9315C164.563 25.4858 162.843 27.0355 162.161 27.4127Z" fill="white"/>
<path fill-rule="evenodd" clip-rule="evenodd" d="M159.999 6.19143L162.278 4.69543C162.901 4.28857 163.735 4.46 164.143 5.084C164.55 5.70343 164.377 6.53771 163.756 6.94686L161.475 8.43943C160.854 8.84971 160.02 8.676 159.611 8.05314C159.202 7.43257 159.375 6.59828 159.999 6.19143Z" fill="white"/>
<path fill-rule="evenodd" clip-rule="evenodd" d="M57.0296 25.9665H56.3051V21.7642H57.2548C57.9759 21.7642 58.8845 21.7528 59.5302 22.4019C59.9576 22.8488 60.0228 23.3437 60.0228 23.8397C60.0228 25.8968 58.2856 25.9482 57.0296 25.9665ZM61.0262 21.0968C59.8239 20.2854 58.0834 20.2659 56.9336 20.2568H53.9256V27.4054H57.6422C58.6319 27.3939 61.2651 27.3539 62.1359 25.1459C62.2548 24.8431 62.3771 24.3848 62.3771 23.7688C62.3771 22.7677 62.0022 21.7642 61.0262 21.0968Z" fill="#CB333B"/>
<path fill-rule="evenodd" clip-rule="evenodd" d="M68.0252 23.5313H66.0732V21.5965H68.08C68.5726 21.6079 69.4435 21.6365 69.4435 22.5485C69.4435 23.5005 68.36 23.5187 68.0252 23.5313ZM71.7955 22.5439C71.7955 21.3336 70.8263 20.2605 68.3635 20.2605H63.7075V27.4102H66.0732V24.8593H67.5578L69.4297 27.4102H72.0378L69.8583 24.5542C70.4983 24.3713 71.7955 23.9805 71.7955 22.5439Z" fill="#CB333B"/>
<path fill-rule="evenodd" clip-rule="evenodd" d="M121.505 23.5313H119.552V21.5965H121.559C122.051 21.6079 122.923 21.6365 122.923 22.5485C122.923 23.5005 121.838 23.5187 121.505 23.5313ZM125.275 22.5439C125.275 21.3336 124.304 20.2605 121.84 20.2605H117.185V27.4102H119.552V24.8593H121.035L122.906 27.4102H125.514L123.336 24.5542C123.979 24.3713 125.275 23.9805 125.275 22.5439Z" fill="#CB333B"/>
<path fill-rule="evenodd" clip-rule="evenodd" d="M78.7071 24.7015C78.6934 25.2581 78.6934 26.0878 77.0923 26.0878C76.5003 26.0878 75.8614 25.9769 75.5666 25.6043C75.4043 25.3803 75.3928 25.0775 75.3928 24.7118V20.2569H73.0123V24.2466C73.0008 25.2181 73.0008 26.4729 74.8168 27.1815C75.4568 27.4375 76.3014 27.5678 77.01 27.5678C77.41 27.5678 79.5094 27.5061 80.5254 26.2718C81.0477 25.6238 81.0614 24.9358 81.074 24.2466V20.2569H78.7071V24.7015Z" fill="#CB333B"/>
<path fill-rule="evenodd" clip-rule="evenodd" d="M87.12 24.7907H89.2286C89.1646 25.1667 89.0835 25.5542 88.4686 25.8559C88.08 26.049 87.5989 26.129 87.1749 26.129C86.4538 26.129 85.8126 25.9062 85.4515 25.6125C84.9966 25.2582 84.7006 24.6022 84.7006 23.7896C84.7006 22.593 85.3829 21.4707 87.1749 21.4707C88.48 21.4707 89.0286 22.0993 89.3658 22.4845L91.1532 21.6639C90.712 21.2307 89.4983 20.0102 87.0012 20.0102C84.3178 20.0102 82.3498 21.5427 82.3498 23.8399C82.3498 25.9473 83.9692 27.5679 86.6012 27.5679C88.1886 27.5679 88.9909 27.0113 89.376 26.737V27.4056H91.2229V23.4365H87.12V24.7907Z" fill="#CB333B"/>
<path fill-rule="evenodd" clip-rule="evenodd" d="M101.136 24.528C101.031 24.864 101.017 24.9143 100.884 25.4103L100.551 24.2651L99.1071 20.2571H95.6843V27.4046H97.9403L97.8226 22.8994C97.7826 22.2194 97.7826 22.0994 97.7426 21.5326L98.1574 22.8069L99.8683 27.4046H101.897L103.676 22.6057C103.784 22.3029 103.796 22.2514 103.921 21.8446L103.997 21.5931L103.972 22.312L103.826 27.4046H106.084V20.2571H102.648L101.136 24.528Z" fill="#CB333B"/>
<path fill-rule="evenodd" clip-rule="evenodd" d="M110.421 24.9744C110.635 24.4384 110.996 23.5961 111.195 23.0601C111.33 22.6967 111.464 22.3218 111.583 21.9561L112.816 24.9744H110.421ZM110.396 20.2567L106.893 27.4053H109.404L109.874 26.2613H113.349L113.817 27.4053H116.332L112.855 20.2567H110.396Z" fill="#CB333B"/>
<path fill-rule="evenodd" clip-rule="evenodd" d="M125.575 21.6742H128.437V27.4147H130.805V21.6742H133.66V20.257H125.575V21.6742Z" fill="#CB333B"/>
<path fill-rule="evenodd" clip-rule="evenodd" d="M27.7908 9.07097H22.8605V4.49383H17.6993V17.0664H22.8605V12.2241H27.7908V17.0664H32.9999V4.49383H27.7908V9.07097Z" fill="#CB333B"/>
<path fill-rule="evenodd" clip-rule="evenodd" d="M43.4861 14.2874C41.0324 14.2874 39.8758 12.9709 39.8758 10.78C39.8758 8.18115 41.6369 7.20057 43.4861 7.20057C43.9512 7.20057 45.941 7.252 46.7295 8.99829C46.9615 9.49772 47.0289 10.0509 47.0289 10.6577C47.0289 13.0246 45.5695 14.2874 43.4861 14.2874ZM43.4861 4.03029C37.5844 4.03029 34.6918 7.20057 34.6918 10.7983C34.6918 13.6657 36.7032 17.4771 43.3947 17.4771C49.8061 17.4771 52.2369 13.8429 52.2369 10.6577C52.2369 7.66572 49.9455 4.03029 43.4861 4.03029Z" fill="#CB333B"/>
<path fill-rule="evenodd" clip-rule="evenodd" d="M62.9292 10.2456C62.6503 10.3165 62.3498 10.3165 62.0743 10.3347H59.1075V7.12903H62.0252C62.6732 7.16446 64.1783 7.2376 64.1783 8.71532C64.1783 9.48103 63.7143 10.0513 62.9292 10.2456ZM69.2938 8.59075C69.2938 7.78732 69.1338 6.63075 67.9303 5.64903C66.6103 4.59989 65.0572 4.54617 63.2755 4.49475H53.9246V17.0673H59.1075V12.9702H63.0903C64.8709 12.937 66.3783 12.881 67.7429 11.7965C69.0172 10.7805 69.2938 9.63875 69.2938 8.59075Z" fill="#CB333B"/>
<path fill-rule="evenodd" clip-rule="evenodd" d="M75.9259 7.12892H78.8424C79.4904 7.16435 80.9956 7.23749 80.9956 8.7152C80.9956 9.48092 80.5339 10.0512 79.7464 10.2455C79.4676 10.3163 79.1659 10.3163 78.8893 10.3346H75.9259V7.12892ZM75.9259 12.9701H79.9076C81.6904 12.9369 83.1967 12.8809 84.5613 11.7963C85.8356 10.7803 86.1122 9.63863 86.1122 8.59063C86.1122 7.7872 85.9499 6.63063 84.7442 5.64892C83.4253 4.59977 81.8756 4.54606 80.0916 4.49463H70.7384V17.0672H75.9259V12.9701Z" fill="#CB333B"/>
<path fill-rule="evenodd" clip-rule="evenodd" d="M101.176 14.3422H92.7324V11.8496H99.9712V9.12389H92.7324V7.25303H100.482V4.49417H87.5495V17.0667H101.176V14.3422Z" fill="#CB333B"/>
<path fill-rule="evenodd" clip-rule="evenodd" d="M107.995 7.11109H110.123C111.024 7.11109 112.649 7.14652 112.649 8.58995C112.649 10.0128 111.005 10.0517 110.15 10.0517H107.995V7.11109ZM107.995 12.6334H109.522L112.693 17.0654H118.438L114.452 11.9911C116.582 11.4139 117.809 10.3477 117.809 8.49852C117.809 7.29166 117.163 5.58195 114.985 4.86766C113.99 4.54652 112.508 4.4928 110.958 4.4928H102.811V17.0654H107.995V12.6334Z" fill="#CB333B"/>
<path fill-rule="evenodd" clip-rule="evenodd" d="M126.881 8.89406C125.475 8.66206 124.632 8.53635 124.632 7.92835C124.632 7.29292 125.606 7.1112 126.487 7.1112C128.195 7.1112 129.977 7.47692 130.769 8.39463L134.01 6.3112C132.443 4.83692 129.725 4.08377 126.669 4.08377C122.417 4.08377 119.447 5.65749 119.447 8.28606C119.447 10.1855 121.041 11.4781 123.895 11.9569C124.697 12.0906 127.499 12.5569 128.041 12.6438C128.761 12.7615 129.057 13.0415 129.057 13.4335C129.057 14.1798 127.589 14.3775 126.713 14.3775C125.224 14.3775 123.005 14.1295 122.042 12.7203L118.082 14.6815C120.181 16.7741 123.041 17.4438 126.417 17.4438C131.411 17.4438 134.128 15.5466 134.128 12.9889C134.128 9.8712 130.504 9.49292 126.881 8.89406Z" fill="#CB333B"/>
<path fill-rule="evenodd" clip-rule="evenodd" d="M8.79752 8.89406C7.39295 8.66206 6.55066 8.53635 6.55066 7.92835C6.55066 7.29292 7.52437 7.1112 8.40552 7.1112C10.1107 7.1112 11.8935 7.47692 12.6867 8.39463L15.9278 6.3112C14.3598 4.83692 11.6421 4.08377 8.58837 4.08377C4.33466 4.08377 1.36209 5.65749 1.36209 8.28606C1.36209 10.1855 2.95866 11.4781 5.81466 11.9569C6.61809 12.0906 9.41466 12.5569 9.96209 12.6438C10.6787 12.7615 10.9735 13.0415 10.9735 13.4335C10.9735 14.1798 9.50609 14.3775 8.63066 14.3775C7.13923 14.3775 4.92209 14.1295 3.9598 12.7203L-0.000198364 14.6815C2.09923 16.7741 4.9598 17.4438 8.33466 17.4438C13.3278 17.4438 16.0432 15.5466 16.0432 12.9889C16.0432 9.8712 12.4227 9.49292 8.79752 8.89406Z" fill="#CB333B"/>
<path fill-rule="evenodd" clip-rule="evenodd" d="M167.623 27.2869L167.486 27.28L167.503 26.8834C167.541 26.88 167.591 26.8823 167.662 26.8846C167.86 26.8937 167.939 26.9863 167.934 27.1006C167.928 27.2446 167.792 27.2926 167.623 27.2869ZM168.238 27.0949C168.245 26.9532 168.204 26.8583 168.128 26.7932C168.037 26.7189 167.895 26.6743 167.66 26.6652C167.452 26.656 167.328 26.6732 167.218 26.6846L167.163 28.0606L167.455 28.072L167.477 27.5074L167.608 27.512C167.757 27.5189 167.842 27.5817 167.859 27.7314C167.879 27.9189 167.894 28.0412 167.927 28.0926L168.228 28.1052C168.208 28.0594 168.184 27.976 168.166 27.76C168.154 27.5554 168.079 27.4434 167.959 27.4149L167.96 27.4046C168.11 27.3726 168.229 27.2606 168.238 27.0949Z" fill="#62B5E5"/>
<path fill-rule="evenodd" clip-rule="evenodd" d="M167.657 28.3561C167.133 28.3344 166.733 27.8841 166.756 27.3275C166.778 26.7767 167.215 26.3481 167.732 26.3698H167.738C168.26 26.3915 168.667 26.8555 168.643 27.4052C168.623 27.9595 168.178 28.3835 167.657 28.3561ZM167.754 26.123H167.747C167.066 26.0955 166.49 26.6281 166.459 27.3092C166.433 28.0018 166.965 28.5755 167.647 28.6041C168.335 28.6327 168.901 28.1047 168.929 27.4121C168.959 26.7275 168.436 26.1504 167.754 26.123Z" fill="#62B5E5"/>
</g>
<defs>
<clipPath id="clip0">
<rect width="171.429" height="32" fill="white"/>
</clipPath>
</defs>
</svg>
